<mxfile host="app.diagrams.net" agent="Mozilla/5.0 (Windows NT 10.0; Win64; x64) AppleWebKit/537.36 (KHTML, like Gecko) Chrome/130.0.0.0 Safari/537.36 Edg/130.0.0.0" version="24.8.0">
  <diagram name="Page-1" id="aDE7OGTjviLG9B-wy0nY">
    <mxGraphModel dx="3266" dy="1141" grid="0" gridSize="10" guides="1" tooltips="1" connect="1" arrows="1" fold="1" page="0" pageScale="1" pageWidth="850" pageHeight="1100" math="0" shadow="0">
      <root>
        <mxCell id="0" />
        <mxCell id="1" parent="0" />
        <mxCell id="LjWdOQgZOLL9ZJcJWFBh-2" style="edgeStyle=orthogonalEdgeStyle;rounded=0;orthogonalLoop=1;jettySize=auto;html=1;fillColor=#d5e8d4;strokeColor=#82b366;" edge="1" parent="1" source="LjWdOQgZOLL9ZJcJWFBh-1">
          <mxGeometry relative="1" as="geometry">
            <mxPoint x="-599" y="488" as="targetPoint" />
          </mxGeometry>
        </mxCell>
        <mxCell id="LjWdOQgZOLL9ZJcJWFBh-1" value="" style="sketch=0;outlineConnect=0;fontColor=#232F3E;gradientColor=none;fillColor=#7AA116;strokeColor=none;dashed=0;verticalLabelPosition=bottom;verticalAlign=top;align=center;html=1;fontSize=12;fontStyle=0;aspect=fixed;pointerEvents=1;shape=mxgraph.aws4.bucket;" vertex="1" parent="1">
          <mxGeometry x="-790" y="449" width="75" height="78" as="geometry" />
        </mxCell>
        <mxCell id="LjWdOQgZOLL9ZJcJWFBh-3" value="&lt;font style=&quot;--darkreader-inline-color: #ff8d1a;&quot; data-darkreader-inline-color=&quot;&quot; color=&quot;#ff8000&quot;&gt;S3 Bucket&lt;/font&gt;" style="text;html=1;align=center;verticalAlign=middle;whiteSpace=wrap;rounded=0;" vertex="1" parent="1">
          <mxGeometry x="-780" y="402" width="60" height="30" as="geometry" />
        </mxCell>
        <mxCell id="LjWdOQgZOLL9ZJcJWFBh-4" value="&lt;font color=&quot;#ff8000&quot;&gt;Data Pipeline&lt;/font&gt;" style="text;html=1;align=center;verticalAlign=middle;whiteSpace=wrap;rounded=0;" vertex="1" parent="1">
          <mxGeometry x="-701" y="494" width="60" height="30" as="geometry" />
        </mxCell>
        <mxCell id="LjWdOQgZOLL9ZJcJWFBh-6" style="edgeStyle=orthogonalEdgeStyle;rounded=0;orthogonalLoop=1;jettySize=auto;html=1;exitX=1;exitY=0.5;exitDx=0;exitDy=0;fillColor=#d5e8d4;strokeColor=#82b366;" edge="1" parent="1">
          <mxGeometry relative="1" as="geometry">
            <mxPoint x="-422" y="488" as="targetPoint" />
            <mxPoint x="-541" y="488" as="sourcePoint" />
          </mxGeometry>
        </mxCell>
        <mxCell id="LjWdOQgZOLL9ZJcJWFBh-10" style="edgeStyle=orthogonalEdgeStyle;rounded=0;orthogonalLoop=1;jettySize=auto;html=1;dashed=1;dashPattern=12 12;" edge="1" parent="1">
          <mxGeometry relative="1" as="geometry">
            <mxPoint x="-569" y="570" as="targetPoint" />
            <mxPoint x="-569" y="516" as="sourcePoint" />
          </mxGeometry>
        </mxCell>
        <mxCell id="LjWdOQgZOLL9ZJcJWFBh-13" style="edgeStyle=orthogonalEdgeStyle;rounded=0;orthogonalLoop=1;jettySize=auto;html=1;fillColor=#d5e8d4;strokeColor=#82b366;" edge="1" parent="1" source="LjWdOQgZOLL9ZJcJWFBh-7">
          <mxGeometry relative="1" as="geometry">
            <mxPoint x="-258" y="491" as="targetPoint" />
          </mxGeometry>
        </mxCell>
        <mxCell id="LjWdOQgZOLL9ZJcJWFBh-7" value="" style="sketch=0;outlineConnect=0;fontColor=#232F3E;gradientColor=none;fillColor=#E7157B;strokeColor=none;dashed=0;verticalLabelPosition=bottom;verticalAlign=top;align=center;html=1;fontSize=12;fontStyle=0;aspect=fixed;pointerEvents=1;shape=mxgraph.aws4.checklist_performance;" vertex="1" parent="1">
          <mxGeometry x="-425" y="458" width="66" height="66" as="geometry" />
        </mxCell>
        <mxCell id="LjWdOQgZOLL9ZJcJWFBh-11" value="&lt;font style=&quot;--darkreader-inline-color: #ff8d1a;&quot; data-darkreader-inline-color=&quot;&quot; color=&quot;#ff8000&quot;&gt;Data Download Script&lt;/font&gt;" style="text;html=1;align=center;verticalAlign=middle;whiteSpace=wrap;rounded=0;" vertex="1" parent="1">
          <mxGeometry x="-603.5" y="577" width="69" height="41" as="geometry" />
        </mxCell>
        <mxCell id="LjWdOQgZOLL9ZJcJWFBh-14" value="&lt;font style=&quot;--darkreader-inline-color: #ff8d1a;&quot; data-darkreader-inline-color=&quot;&quot; color=&quot;#ff8000&quot;&gt;Data Transformation&lt;/font&gt;" style="text;html=1;align=center;verticalAlign=middle;whiteSpace=wrap;rounded=0;" vertex="1" parent="1">
          <mxGeometry x="-444" y="574" width="115" height="30" as="geometry" />
        </mxCell>
        <mxCell id="LjWdOQgZOLL9ZJcJWFBh-15" style="edgeStyle=orthogonalEdgeStyle;rounded=0;orthogonalLoop=1;jettySize=auto;html=1;entryX=0.449;entryY=0.078;entryDx=0;entryDy=0;entryPerimeter=0;dashed=1;dashPattern=12 12;" edge="1" parent="1" source="LjWdOQgZOLL9ZJcJWFBh-7" target="LjWdOQgZOLL9ZJcJWFBh-14">
          <mxGeometry relative="1" as="geometry" />
        </mxCell>
        <mxCell id="LjWdOQgZOLL9ZJcJWFBh-17" value="" style="sketch=0;points=[[0,0,0],[0.25,0,0],[0.5,0,0],[0.75,0,0],[1,0,0],[0,1,0],[0.25,1,0],[0.5,1,0],[0.75,1,0],[1,1,0],[0,0.25,0],[0,0.5,0],[0,0.75,0],[1,0.25,0],[1,0.5,0],[1,0.75,0]];outlineConnect=0;fontColor=#232F3E;fillColor=#7AA116;strokeColor=#ffffff;dashed=0;verticalLabelPosition=bottom;verticalAlign=top;align=center;html=1;fontSize=12;fontStyle=0;aspect=fixed;shape=mxgraph.aws4.resourceIcon;resIcon=mxgraph.aws4.storage;" vertex="1" parent="1">
          <mxGeometry x="-769" y="494" width="26" height="26" as="geometry" />
        </mxCell>
        <mxCell id="LjWdOQgZOLL9ZJcJWFBh-20" style="edgeStyle=orthogonalEdgeStyle;rounded=0;orthogonalLoop=1;jettySize=auto;html=1;exitX=0.5;exitY=0;exitDx=0;exitDy=0;exitPerimeter=0;" edge="1" parent="1" source="LjWdOQgZOLL9ZJcJWFBh-18" target="LjWdOQgZOLL9ZJcJWFBh-19">
          <mxGeometry relative="1" as="geometry" />
        </mxCell>
        <mxCell id="LjWdOQgZOLL9ZJcJWFBh-18" value="" style="outlineConnect=0;dashed=0;verticalLabelPosition=bottom;verticalAlign=top;align=center;html=1;shape=mxgraph.aws3.android;fillColor=#FFD44F;gradientColor=none;" vertex="1" parent="1">
          <mxGeometry x="-598" y="456" width="52" height="59.5" as="geometry" />
        </mxCell>
        <mxCell id="LjWdOQgZOLL9ZJcJWFBh-19" value="&lt;font style=&quot;--darkreader-inline-color: #ff8d1a;&quot; data-darkreader-inline-color=&quot;&quot; color=&quot;#ff8000&quot;&gt;Python Boto&lt;/font&gt;" style="text;html=1;align=center;verticalAlign=middle;whiteSpace=wrap;rounded=0;" vertex="1" parent="1">
          <mxGeometry x="-614.75" y="395" width="85.5" height="30" as="geometry" />
        </mxCell>
        <mxCell id="LjWdOQgZOLL9ZJcJWFBh-22" style="edgeStyle=orthogonalEdgeStyle;rounded=0;orthogonalLoop=1;jettySize=auto;html=1;" edge="1" parent="1" source="LjWdOQgZOLL9ZJcJWFBh-21">
          <mxGeometry relative="1" as="geometry">
            <mxPoint x="-216" y="574" as="targetPoint" />
          </mxGeometry>
        </mxCell>
        <mxCell id="LjWdOQgZOLL9ZJcJWFBh-26" style="edgeStyle=orthogonalEdgeStyle;rounded=0;orthogonalLoop=1;jettySize=auto;html=1;" edge="1" parent="1" source="LjWdOQgZOLL9ZJcJWFBh-21">
          <mxGeometry relative="1" as="geometry">
            <mxPoint x="-216" y="231" as="targetPoint" />
          </mxGeometry>
        </mxCell>
        <mxCell id="LjWdOQgZOLL9ZJcJWFBh-29" style="edgeStyle=orthogonalEdgeStyle;rounded=0;orthogonalLoop=1;jettySize=auto;html=1;fillColor=#d5e8d4;strokeColor=#82b366;" edge="1" parent="1" source="LjWdOQgZOLL9ZJcJWFBh-21">
          <mxGeometry relative="1" as="geometry">
            <mxPoint x="-52" y="488" as="targetPoint" />
          </mxGeometry>
        </mxCell>
        <mxCell id="LjWdOQgZOLL9ZJcJWFBh-21" value="" style="sketch=0;outlineConnect=0;fontColor=#232F3E;gradientColor=none;fillColor=#01A88D;strokeColor=none;dashed=0;verticalLabelPosition=bottom;verticalAlign=top;align=center;html=1;fontSize=12;fontStyle=0;aspect=fixed;pointerEvents=1;shape=mxgraph.aws4.sagemaker_model;" vertex="1" parent="1">
          <mxGeometry x="-255" y="449" width="78" height="78" as="geometry" />
        </mxCell>
        <mxCell id="LjWdOQgZOLL9ZJcJWFBh-23" value="&lt;font style=&quot;--darkreader-inline-color: #ff8d1a;&quot; data-darkreader-inline-color=&quot;&quot; color=&quot;#ff8000&quot;&gt;Model Training&lt;/font&gt;" style="text;html=1;align=center;verticalAlign=middle;whiteSpace=wrap;rounded=0;" vertex="1" parent="1">
          <mxGeometry x="-273.5" y="577" width="115" height="26" as="geometry" />
        </mxCell>
        <mxCell id="LjWdOQgZOLL9ZJcJWFBh-27" value="" style="shape=image;verticalLabelPosition=bottom;labelBackgroundColor=default;verticalAlign=top;aspect=fixed;imageAspect=0;image=https://media.springernature.com/m685/springer-static/image/art%3A10.1038%2Fs41598-021-97428-8/MediaObjects/41598_2021_97428_Fig1_HTML.png;" vertex="1" parent="1">
          <mxGeometry x="-359" y="46" width="303.28" height="174" as="geometry" />
        </mxCell>
        <mxCell id="LjWdOQgZOLL9ZJcJWFBh-28" value="CNN Model" style="text;html=1;align=center;verticalAlign=middle;whiteSpace=wrap;rounded=0;fillColor=#60a917;strokeColor=#2D7600;fontColor=#ffffff;" vertex="1" parent="1">
          <mxGeometry x="-273.5" y="118" width="115" height="26" as="geometry" />
        </mxCell>
        <mxCell id="LjWdOQgZOLL9ZJcJWFBh-32" style="edgeStyle=orthogonalEdgeStyle;rounded=0;orthogonalLoop=1;jettySize=auto;html=1;entryX=0;entryY=0.5;entryDx=0;entryDy=0;" edge="1" parent="1" source="LjWdOQgZOLL9ZJcJWFBh-30" target="LjWdOQgZOLL9ZJcJWFBh-3">
          <mxGeometry relative="1" as="geometry">
            <Array as="points">
              <mxPoint x="-10" y="761" />
              <mxPoint x="-800" y="761" />
              <mxPoint x="-800" y="417" />
            </Array>
          </mxGeometry>
        </mxCell>
        <mxCell id="LjWdOQgZOLL9ZJcJWFBh-39" style="edgeStyle=orthogonalEdgeStyle;rounded=0;orthogonalLoop=1;jettySize=auto;html=1;exitX=0.5;exitY=0;exitDx=0;exitDy=0;exitPerimeter=0;entryX=0.5;entryY=1;entryDx=0;entryDy=0;" edge="1" parent="1" source="LjWdOQgZOLL9ZJcJWFBh-30" target="LjWdOQgZOLL9ZJcJWFBh-38">
          <mxGeometry relative="1" as="geometry" />
        </mxCell>
        <mxCell id="LjWdOQgZOLL9ZJcJWFBh-30" value="" style="shape=mxgraph.cisco.directors.localdirector;html=1;pointerEvents=1;dashed=0;fillColor=#036897;strokeColor=#ffffff;strokeWidth=2;verticalLabelPosition=bottom;verticalAlign=top;align=center;outlineConnect=0;" vertex="1" parent="1">
          <mxGeometry x="-49" y="462.5" width="81" height="51" as="geometry" />
        </mxCell>
        <mxCell id="LjWdOQgZOLL9ZJcJWFBh-33" value="&lt;font data-darkreader-inline-color=&quot;&quot; style=&quot;--darkreader-inline-color: #ff8d1a;&quot;&gt;New Model will be saved in the S3 directory for version support.&lt;/font&gt;" style="text;html=1;align=center;verticalAlign=middle;whiteSpace=wrap;rounded=0;fontColor=#05FF48;" vertex="1" parent="1">
          <mxGeometry x="-631" y="722" width="456" height="41" as="geometry" />
        </mxCell>
        <mxCell id="LjWdOQgZOLL9ZJcJWFBh-38" value="&lt;font style=&quot;--darkreader-inline-color: #ff8d1a;&quot; data-darkreader-inline-color=&quot;&quot; color=&quot;#ff8000&quot;&gt;Saved Directory&lt;/font&gt;" style="text;html=1;align=center;verticalAlign=middle;whiteSpace=wrap;rounded=0;" vertex="1" parent="1">
          <mxGeometry x="-66" y="397" width="115" height="26" as="geometry" />
        </mxCell>
        <mxCell id="LjWdOQgZOLL9ZJcJWFBh-40" value="" style="shape=image;verticalLabelPosition=bottom;labelBackgroundColor=default;verticalAlign=top;aspect=fixed;imageAspect=0;image=https://blog.appseed.us/content/images/2023/10/cover-flask.jpg;" vertex="1" parent="1">
          <mxGeometry x="187" y="438" width="114.67" height="86" as="geometry" />
        </mxCell>
        <mxCell id="LjWdOQgZOLL9ZJcJWFBh-42" style="edgeStyle=orthogonalEdgeStyle;rounded=0;orthogonalLoop=1;jettySize=auto;html=1;exitX=0.5;exitY=0;exitDx=0;exitDy=0;entryX=0.561;entryY=0.016;entryDx=0;entryDy=0;entryPerimeter=0;" edge="1" parent="1" source="LjWdOQgZOLL9ZJcJWFBh-3" target="LjWdOQgZOLL9ZJcJWFBh-40">
          <mxGeometry relative="1" as="geometry">
            <Array as="points">
              <mxPoint x="-750" y="353" />
              <mxPoint x="251" y="353" />
            </Array>
          </mxGeometry>
        </mxCell>
        <mxCell id="LjWdOQgZOLL9ZJcJWFBh-43" value="&lt;font style=&quot;--darkreader-inline-color: #ff9c38;&quot; data-darkreader-inline-color=&quot;&quot;&gt;Highest Accuracy File will be used for prediction&lt;/font&gt;" style="text;html=1;align=center;verticalAlign=middle;whiteSpace=wrap;rounded=0;glass=0;fontColor=#05FF48;" vertex="1" parent="1">
          <mxGeometry x="-130" y="323" width="348.72" height="26" as="geometry" />
        </mxCell>
      </root>
    </mxGraphModel>
  </diagram>
</mxfile>
